<mxfile host="65bd71144e">
    <diagram id="Xp6n4QstzBdnQBWm7sba" name="Page-1">
        <mxGraphModel dx="869" dy="511" grid="1" gridSize="10" guides="1" tooltips="1" connect="1" arrows="1" fold="1" page="1" pageScale="1" pageWidth="827" pageHeight="1169" math="0" shadow="0">
            <root>
                <mxCell id="0"/>
                <mxCell id="1" parent="0"/>
                <mxCell id="2" value="Certificate.Api" style="whiteSpace=wrap;html=1;aspect=fixed;" vertex="1" parent="1">
                    <mxGeometry x="150" y="200" width="150" height="150" as="geometry"/>
                </mxCell>
                <mxCell id="4" value="Blazor.UI" style="ellipse;whiteSpace=wrap;html=1;" vertex="1" parent="1">
                    <mxGeometry x="310" y="70" width="120" height="80" as="geometry"/>
                </mxCell>
                <mxCell id="5" value="PdfCreator.Project&lt;br&gt;RabbitMQ" style="whiteSpace=wrap;html=1;aspect=fixed;" vertex="1" parent="1">
                    <mxGeometry x="460" y="200" width="150" height="150" as="geometry"/>
                </mxCell>
            </root>
        </mxGraphModel>
    </diagram>
</mxfile>